<?xml version="1.0" encoding="UTF-8" standalone="no"?>
<svg
   xmlns:dc="http://purl.org/dc/elements/1.1/"
   xmlns:cc="http://creativecommons.org/ns#"
   xmlns:rdf="http://www.w3.org/1999/02/22-rdf-syntax-ns#"
   xmlns:svg="http://www.w3.org/2000/svg"
   xmlns="http://www.w3.org/2000/svg"
   xmlns:xlink="http://www.w3.org/1999/xlink"
   xmlns:sodipodi="http://sodipodi.sourceforge.net/DTD/sodipodi-0.dtd"
   xmlns:inkscape="http://www.inkscape.org/namespaces/inkscape"
   inkscape:version="1.0 (4035a4fb49, 2020-05-01)"
   sodipodi:docname="alphabet-circle.svg"
   id="svg8"
   version="1.1"
   viewBox="0 0 188.10136 188.18038"
   height="188.18037mm"
   width="188.10136mm">
  <defs
     id="defs2">
    <rect
       id="rect1107"
       height="81.823235"
       width="403.078"
       y="256.52939"
       x="84.928185" />
    <rect
       id="rect1096"
       height="48.18103"
       width="302.53488"
       y="227.2607"
       x="68.086945" />
    <rect
       id="rect904"
       height="36.324051"
       width="250.75061"
       y="-85.439545"
       x="161.55946" />
  </defs>
  <sodipodi:namedview
     inkscape:window-maximized="1"
     inkscape:window-y="32"
     inkscape:window-x="0"
     inkscape:window-height="1140"
     inkscape:window-width="1920"
     showguides="false"
     showgrid="false"
     inkscape:document-rotation="0"
     inkscape:current-layer="layer1"
     inkscape:document-units="mm"
     inkscape:cy="504.99692"
     inkscape:cx="130.94597"
     inkscape:zoom="0.49497475"
     inkscape:pageshadow="2"
     inkscape:pageopacity="0.0"
     borderopacity="1.0"
     bordercolor="#666666"
     pagecolor="#ffffff"
     id="base" />
  <metadata
     id="metadata5">
    <rdf:RDF>
      <cc:Work
         rdf:about="">
        <dc:format>image/svg+xml</dc:format>
        <dc:type
           rdf:resource="http://purl.org/dc/dcmitype/StillImage" />
      </cc:Work>
    </rdf:RDF>
  </metadata>
  <g
     transform="translate(-101.66346,37.747401)"
     id="layer1"
     inkscape:groupmode="layer"
     inkscape:label="Layer 1">
    <path
       id="path1099"
       style="fill:none;stroke:#7bab8b;stroke-width:2;stroke-linecap:round;stroke-miterlimit:4;stroke-dasharray:none;stroke-opacity:1"
       d="M 272.6122,54.64958 A 76.916695,76.916695 0 0 1 197.40736,133.24085 76.916695,76.916695 0 0 1 118.81609,58.03599 76.916695,76.916695 0 0 1 194.02094,-20.555274 76.916695,76.916695 0 0 1 272.6122,54.64958" />
    <text
       transform="matrix(-0.04387476,-1.0747759,1.0747759,-0.04387476,143.63577,269.16285)"
       style="font-style:normal;font-variant:normal;font-weight:bold;font-stretch:normal;font-size:14.8167px;line-height:1.25;font-family:'Latin Modern Roman';-inkscape-font-specification:'Latin Modern Roman, Bold';letter-spacing:0.171979px;word-spacing:0px;white-space:pre;fill:#000000;fill-opacity:1;stroke:none"
       id="text1094"
       xml:space="preserve"><textPath
         style="font-style:normal;font-variant:normal;font-weight:bold;font-stretch:normal;font-size:14.8167px;font-family:'Fira Code';-inkscape-font-specification:'Fira Code Bold'"
         id="textPath1102"
         xlink:href="#path1099">A B C D E F G H I J K L M N O P Q R S T U V W X Y Z </textPath></text>
    <g
       style="font-style:normal;font-variant:normal;font-weight:bold;font-stretch:normal;font-size:9.87778px;line-height:1.25;font-family:'Latin Modern Roman';-inkscape-font-specification:'Latin Modern Roman, Bold';letter-spacing:0px;word-spacing:0px;white-space:pre;fill:#000000;fill-opacity:1;stroke:none"
       id="text1105"
       transform="matrix(-0.11656775,-0.8806692,0.8806692,-0.11656775,164.49892,468.60123)"
       aria-label=" 0  1  2  3  4  5  6  7  8  9 10 11 12 13 14 15 16 17 18 19 20 21 22 23 24 25 ">
      <path
         id="path1114"
         style="font-style:normal;font-variant:normal;font-weight:500;font-stretch:normal;font-size:9.87778px;font-family:'Fira Code';-inkscape-font-specification:'Fira Code Medium'"
         d="m 536.44932,105.78486 c 0.18987,-1.5588 -1.01951,-2.52258 -3.31244,-2.80188 -2.30299,-0.28052 -3.71339,0.36416 -3.90326,1.92295 -0.18926,1.55376 1.02453,2.52319 3.32752,2.80371 2.29293,0.2793 3.69892,-0.37102 3.88818,-1.92478 z m -0.85985,-0.10474 c -0.0459,0.37713 -0.19528,0.6396 -0.51081,0.80018 l -3.75807,-2.45302 c 0.41771,-0.0359 0.97071,-0.009 1.6797,0.077 1.95604,0.23826 2.68595,0.78133 2.58918,1.57581 z m -5.496,-0.66945 c 0.0417,-0.34193 0.16903,-0.59177 0.43428,-0.75848 l 3.71649,2.41734 c -0.4014,0.0277 -0.90792,-0.003 -1.54652,-0.0812 -1.98117,-0.24133 -2.70225,-0.77312 -2.60425,-1.57765 z" />
      <path
         id="path1116"
         style="font-style:normal;font-variant:normal;font-weight:500;font-stretch:normal;font-size:9.87778px;font-family:'Fira Code';-inkscape-font-specification:'Fira Code Medium'"
         d="m 525.46936,123.76281 5.69176,2.19098 0.36031,-0.93602 -0.45754,-2.47754 -0.9169,0.16813 0.33082,1.77741 -4.60447,-1.77243 0.61326,-1.59313 -0.83202,-0.32028 -1.51949,3.94736 0.83202,0.32028 z" />
      <path
         id="path1118"
         style="font-style:normal;font-variant:normal;font-weight:500;font-stretch:normal;font-size:9.87778px;font-family:'Fira Code';-inkscape-font-specification:'Fira Code Medium'"
         d="m 522.40195,142.48983 c 0.5828,-0.82869 0.65837,-1.60537 0.40252,-2.44794 l -0.88537,0.28149 c 0.18246,0.62993 0.14499,1.06185 -0.21635,1.57564 -0.40796,0.58008 -1.00202,0.67629 -1.57796,0.27125 -0.83697,-0.58863 -1.1191,-1.56115 -1.64894,-4.99922 l -0.70439,-0.49539 -2.50022,3.55508 0.67006,0.63225 1.82708,-2.59794 c 0.3723,2.99286 0.73566,4.2021 1.73837,4.90729 0.89913,0.63234 2.07636,0.4818 2.8952,-0.68251 z" />
      <path
         id="path1120"
         style="font-style:normal;font-variant:normal;font-weight:500;font-stretch:normal;font-size:9.87778px;font-family:'Fira Code';-inkscape-font-specification:'Fira Code Medium'"
         d="m 509.11105,157.30594 c 0.61237,-0.53093 0.97334,-1.21264 1.05484,-2.0543 l -0.87688,-0.0912 c -0.0642,0.5987 -0.23917,1.0387 -0.68314,1.42363 -0.51668,0.44797 -1.15977,0.50271 -1.60443,-0.0102 -0.49111,-0.56644 -0.29091,-1.20932 0.20282,-1.63739 l 0.32149,-0.27873 -0.44802,-0.71779 -0.45545,0.39489 c -0.60471,0.52429 -1.22379,0.64538 -1.81778,-0.0397 -0.52097,-0.60088 -0.42338,-1.31571 0.23109,-1.88315 0.42483,-0.36833 0.98852,-0.56878 1.59617,-0.47881 l 0.12614,-0.91389 c -0.84856,-0.13585 -1.68529,0.16724 -2.35124,0.74463 -1.15968,1.00545 -1.30308,2.36339 -0.51664,3.27046 0.72008,0.83052 1.62729,0.74791 2.34532,0.24605 -0.47377,0.65212 -0.53434,1.50245 0.0298,2.1531 0.63048,0.72718 1.79725,0.78156 2.84593,-0.12766 z" />
      <path
         id="path1122"
         style="font-style:normal;font-variant:normal;font-weight:500;font-stretch:normal;font-size:9.87778px;font-family:'Fira Code';-inkscape-font-specification:'Fira Code Medium'"
         d="m 488.09509,165.5845 0.74074,-0.3761 0.84621,1.66667 0.84914,-0.43113 -0.72426,-1.72858 1.53568,-0.77971 0.33874,4.60577 1.02565,-0.0947 -0.34876,-5.12902 -0.35775,-0.7046 -2.58807,1.31403 -0.73377,-1.43402 -0.97109,0.49305 0.72925,1.43631 -0.74073,0.37609 z" />
      <path
         id="path1124"
         style="font-style:normal;font-variant:normal;font-weight:500;font-stretch:normal;font-size:9.87778px;font-family:'Fira Code';-inkscape-font-specification:'Fira Code Medium'"
         d="m 471.60591,175.71038 3.81842,-0.86719 -0.79539,-3.50228 -0.81505,0.18511 c -0.32583,0.23502 -0.58068,0.37082 -0.92647,0.44935 -0.63722,0.14472 -1.18997,-0.0934 -1.4177,-1.09613 -0.20979,-0.92373 0.18009,-1.5629 1.00997,-1.75137 0.54337,-0.1234 1.051,-0.0153 1.52784,0.32311 l 0.52058,-0.77273 c -0.64432,-0.43546 -1.40342,-0.62149 -2.29257,-0.41955 -1.47698,0.33543 -2.22865,1.50868 -1.9179,2.87699 0.31075,1.36831 1.28285,1.98905 2.37453,1.74112 0.37048,-0.0841 0.7165,-0.23025 1.0558,-0.52028 l 0.43079,1.89686 -2.61806,0.59458 z" />
      <path
         id="path1126"
         style="font-style:normal;font-variant:normal;font-weight:500;font-stretch:normal;font-size:9.87778px;font-family:'Fira Code';-inkscape-font-specification:'Fira Code Medium'"
         d="m 453.40145,174.87829 c 0.61787,0.0125 1.16986,-0.22453 1.61702,-0.78798 -0.0819,1.53858 -0.6987,2.47351 -1.65589,2.45409 -0.34945,-0.007 -0.69178,-0.11536 -0.98668,-0.31388 l -0.4554,0.72035 c 0.38968,0.27137 0.86246,0.44309 1.42968,0.4546 1.73205,0.0351 2.79665,-1.49364 2.84391,-3.8233 0.0401,-1.97515 -0.60484,-3.40181 -2.36222,-3.43746 -1.33196,-0.027 -2.32975,0.95592 -2.36006,2.44994 -0.0302,1.48896 0.84584,2.26165 1.92964,2.28364 z m 0.40789,-3.87272 c 0.88122,0.0179 1.22145,0.72903 1.22122,2.23887 -0.33915,0.48457 -0.82179,0.79904 -1.37382,0.78784 -0.64319,-0.013 -1.05604,-0.39128 -1.03426,-1.46495 0.0192,-0.94706 0.412,-1.57748 1.18686,-1.56176 z" />
      <path
         id="path1128"
         style="font-style:normal;font-variant:normal;font-weight:500;font-stretch:normal;font-size:9.87778px;font-family:'Fira Code';-inkscape-font-specification:'Fira Code Medium'"
         d="m 436.49235,167.7416 -4.31278,5.35413 -0.2135,0.78711 4.19954,1.13912 0.23339,-0.86044 -3.08976,-0.8381 4.12847,-4.98424 z" />
      <path
         id="path1130"
         style="font-style:normal;font-variant:normal;font-weight:500;font-stretch:normal;font-size:9.87778px;font-family:'Fira Code';-inkscape-font-specification:'Fira Code Medium'"
         d="m 414.55792,164.39824 c -0.58732,1.04706 0.0166,2.08275 1.01504,2.64281 0.94103,0.52783 2.21338,0.52713 2.82299,-0.55969 0.38163,-0.68037 0.2968,-1.23325 -0.15299,-1.93276 0.90351,0.077 1.65238,-0.17086 2.06127,-0.89983 0.53775,-0.9587 0.22532,-2.16196 -1.14867,-2.93266 -1.37399,-0.77069 -2.61033,-0.43035 -3.158,0.54603 -0.40641,0.72455 -0.26607,1.54087 0.33727,2.34975 -0.87528,-0.003 -1.44733,0.19876 -1.77691,0.78635 z m 2.88181,1.54095 c -0.32959,0.58759 -0.86199,0.71875 -1.46284,0.38173 -0.60526,-0.3395 -0.7403,-0.8857 -0.43301,-1.43353 0.26515,-0.47272 0.64217,-0.62715 1.31929,-0.6539 0.60539,0.67062 0.91358,1.10485 0.57656,1.7057 z m -0.42797,-4.11398 c 0.3172,-0.56551 0.95379,-0.78923 1.70926,-0.36547 0.74664,0.4188 0.90356,1.02953 0.55415,1.65247 -0.36924,0.65828 -0.9441,0.8237 -1.51917,0.80315 -0.73168,-0.82858 -1.15809,-1.35235 -0.74424,-2.09015 z" />
      <path
         id="path1132"
         style="font-style:normal;font-variant:normal;font-weight:500;font-stretch:normal;font-size:9.87778px;font-family:'Fira Code';-inkscape-font-specification:'Fira Code Medium'"
         d="m 399.58138,155.29667 c 0.96994,0.91327 2.32672,0.98712 3.35806,-0.10821 0.94452,-1.00313 0.9118,-2.20978 0.082,-2.9911 -0.47944,-0.45142 -1.04227,-0.57783 -1.64658,-0.53456 1.11875,-0.92954 2.31604,-0.79714 3.99139,0.0985 l 0.38878,-0.77498 c -2.45682,-1.38097 -4.07378,-1.40757 -5.97325,0.60975 -1.17718,1.25023 -1.35843,2.61024 -0.20041,3.70061 z m 2.65363,-2.67788 c 0.4905,0.46185 0.54071,1.05878 -0.13643,1.77794 -0.69451,0.73759 -1.35524,0.81123 -1.92318,0.27646 -0.6454,-0.60769 -0.44758,-1.29809 0.61827,-2.43746 0.58218,-0.0641 1.05041,0.015 1.44134,0.38306 z" />
      <path
         id="path1134"
         style="font-style:normal;font-variant:normal;font-weight:500;font-stretch:normal;font-size:9.87778px;font-family:'Fira Code';-inkscape-font-specification:'Fira Code Medium'"
         d="m 394.99266,140.84324 -4.84361,3.70621 0.6095,0.79654 2.35114,0.90538 0.33609,-0.86949 -1.68808,-0.64733 3.91833,-2.99822 1.03737,1.35573 0.70804,-0.54177 -2.57034,-3.35915 -0.70804,0.54177 z" />
      <path
         id="path1136"
         style="font-style:normal;font-variant:normal;font-weight:500;font-stretch:normal;font-size:9.87778px;font-family:'Fira Code';-inkscape-font-specification:'Fira Code Medium'"
         d="m 386.77554,139.92852 c 0.84968,1.32058 2.39581,1.28953 4.33833,0.0397 1.95105,-1.25533 2.62434,-2.6523 1.77466,-3.97288 -0.84694,-1.31631 -2.40007,-1.28678 -4.35111,-0.0314 -1.94253,1.24986 -2.60883,2.64834 -1.76188,3.96466 z m 0.72844,-0.46869 c -0.20556,-0.3195 -0.25834,-0.61684 -0.11816,-0.94195 l 4.45834,-0.51339 c -0.29846,0.29443 -0.74086,0.62727 -1.34151,1.01374 -1.65711,1.06622 -2.5656,1.11466 -2.99867,0.4416 z m 4.6561,-2.99582 c 0.18639,0.28967 0.24797,0.56327 0.15039,0.86097 l -4.40355,0.51428 c 0.29116,-0.27769 0.70071,-0.57734 1.24172,-0.92543 1.67841,-1.07992 2.5729,-1.13141 3.01144,-0.44982 z" />
      <path
         id="path1138"
         style="font-style:normal;font-variant:normal;font-weight:500;font-stretch:normal;font-size:9.87778px;font-family:'Fira Code';-inkscape-font-specification:'Fira Code Medium'"
         d="m 385.87004,124.85292 -5.5981,2.42029 0.39802,0.92062 2.06123,1.44877 0.537,-0.76196 -1.48058,-1.03757 4.5287,-1.95794 0.67744,1.56691 0.81833,-0.3538 -1.67853,-3.8824 -0.81833,0.35379 z" />
      <path
         id="path1140"
         style="font-style:normal;font-variant:normal;font-weight:500;font-stretch:normal;font-size:9.87778px;font-family:'Fira Code';-inkscape-font-specification:'Fira Code Medium'"
         d="m 383.73472,119.08469 -5.77791,1.95252 0.3211,0.95018 1.93532,1.61311 0.59775,-0.7153 -1.3904,-1.15562 4.67416,-1.57953 0.54651,1.61724 0.84461,-0.28542 -1.35411,-4.0071 -0.84462,0.28542 z" />
      <path
         id="path1142"
         style="font-style:normal;font-variant:normal;font-weight:500;font-stretch:normal;font-size:9.87778px;font-family:'Fira Code';-inkscape-font-specification:'Fira Code Medium'"
         d="m 380.91821,107.12098 -6.01944,0.98124 0.16136,0.9899 1.64543,1.90791 0.70669,-0.6079 -1.18266,-1.36746 4.86955,-0.79379 0.27464,1.68485 0.87992,-0.14344 -0.6805,-4.17461 -0.87992,0.14343 z" />
      <path
         id="path1144"
         style="font-style:normal;font-variant:normal;font-weight:500;font-stretch:normal;font-size:9.87778px;font-family:'Fira Code';-inkscape-font-specification:'Fira Code Medium'"
         d="m 374.12938,102.71835 c 0.0811,1.00985 0.51914,1.65565 1.25426,2.14039 l 0.50129,-0.78219 c -0.54281,-0.36805 -0.78993,-0.72427 -0.84019,-1.35038 -0.0567,-0.7069 0.33879,-1.16044 1.04064,-1.21679 1.01996,-0.0819 1.85832,0.48604 4.46243,2.79248 l 0.85838,-0.0689 -0.3478,-4.332282 -0.91941,-0.05832 0.25416,3.165902 c -2.19848,-2.06459 -3.25056,-2.76273 -4.47249,-2.66463 -1.0957,0.088 -1.90517,0.95588 -1.79127,2.37473 z" />
      <path
         id="path1146"
         style="font-style:normal;font-variant:normal;font-weight:500;font-stretch:normal;font-size:9.87778px;font-family:'Fira Code';-inkscape-font-specification:'Fira Code Medium'"
         d="m 380.40838,88.718907 -6.07889,-0.493577 -0.0812,0.999685 1.1389,2.247325 0.83203,-0.420334 -0.81952,-1.611529 4.91764,0.399288 -0.13815,1.701484 0.8886,0.07215 0.34231,-4.215843 -0.88861,-0.07215 z" />
      <path
         id="path1148"
         style="font-style:normal;font-variant:normal;font-weight:500;font-stretch:normal;font-size:9.87778px;font-family:'Fira Code';-inkscape-font-specification:'Fira Code Medium'"
         d="m 374.87161,82.834168 c -0.13113,0.799806 0.0274,1.55471 0.50312,2.253813 l 0.73238,-0.490772 c -0.3336,-0.501279 -0.48053,-0.951419 -0.38546,-1.531279 0.11064,-0.674837 0.56997,-1.128245 1.2398,-1.018424 0.73982,0.121295 0.99713,0.743527 0.89141,1.388371 l -0.0688,0.419898 0.80349,0.265196 0.0975,-0.594856 c 0.12949,-0.789808 0.52793,-1.278865 1.42271,-1.132164 0.78481,0.128671 1.16701,0.74058 1.02686,1.595373 -0.091,0.554866 -0.39607,1.069492 -0.9207,1.388996 l 0.48757,0.783182 c 0.73918,-0.438326 1.18851,-1.206495 1.33111,-2.076284 0.24833,-1.514634 -0.51,-2.650194 -1.69471,-2.84443 -1.08474,-0.177844 -1.72926,0.465926 -1.96021,1.310965 -0.0529,-0.804316 -0.55025,-1.4967 -1.40004,-1.636025 -0.94977,-0.155716 -1.88145,0.548772 -2.10601,1.91844 z" />
      <path
         id="path1150"
         style="font-style:normal;font-variant:normal;font-weight:500;font-stretch:normal;font-size:9.87778px;font-family:'Fira Code';-inkscape-font-specification:'Fira Code Medium'"
         d="m 384.35441,70.737096 -5.7761,-1.957839 -0.32197,0.949891 0.55786,2.4569 0.9093,-0.205254 -0.40278,-1.762502 4.6727,1.583834 -0.548,1.616734 0.84434,0.286195 1.35781,-4.005854 -0.84435,-0.286195 z" />
      <path
         id="path1152"
         style="font-style:normal;font-variant:normal;font-weight:500;font-stretch:normal;font-size:9.87778px;font-family:'Fira Code';-inkscape-font-specification:'Fira Code Medium'"
         d="m 385.75752,63.032227 -0.33037,0.762228 -1.71502,-0.743346 -0.37872,0.873773 1.66062,0.868835 -0.68492,1.580229 -3.19965,-3.330186 -0.72932,0.727335 3.54123,3.726681 0.72505,0.314261 1.1543,-2.663151 1.48,0.63596 0.43311,-0.999263 -1.47798,-0.640607 0.33038,-0.762228 z" />
      <path
         id="path1154"
         style="font-style:normal;font-variant:normal;font-weight:500;font-stretch:normal;font-size:9.87778px;font-family:'Fira Code';-inkscape-font-specification:'Fira Code Medium'"
         d="m 392.56613,54.259765 -5.12594,-3.304739 -0.54347,0.842969 -0.0569,2.518796 0.93191,0.02222 0.0383,-1.807534 4.14673,2.673435 -0.92499,1.434751 0.7493,0.483085 2.29191,-3.554948 -0.7493,-0.483084 z" />
      <path
         id="path1156"
         style="font-style:normal;font-variant:normal;font-weight:500;font-stretch:normal;font-size:9.87778px;font-family:'Fira Code';-inkscape-font-specification:'Fira Code Medium'"
         d="m 391.97805,44.716082 -2.38232,3.107557 2.85027,2.185074 0.50852,-0.66332 c 0.10035,-0.389009 0.20955,-0.656344 0.42529,-0.937753 0.39756,-0.518596 0.97484,-0.688794 1.79092,-0.06317 0.75177,0.576317 0.86046,1.317072 0.3427,1.992453 -0.33901,0.442214 -0.79849,0.683563 -1.38153,0.728069 l 0.0936,0.927017 c 0.77385,-0.07694 1.47655,-0.419065 2.03129,-1.142687 0.92149,-1.202017 0.74966,-2.584771 -0.36391,-3.43846 -1.11358,-0.853689 -2.25794,-0.709738 -2.93905,0.178709 -0.23114,0.30151 -0.40386,0.635044 -0.47942,1.074972 l -1.54373,-1.183454 1.63341,-2.130666 z" />
      <path
         id="path1158"
         style="font-style:normal;font-variant:normal;font-weight:500;font-stretch:normal;font-size:9.87778px;font-family:'Fira Code';-inkscape-font-specification:'Fira Code Medium'"
         d="m 404.52293,40.262365 -4.17688,-4.444121 -0.73085,0.686895 -0.66305,2.430622 0.89901,0.246467 0.47337,-1.744869 3.37897,3.595161 -1.24391,1.16911 0.61057,0.649639 3.08209,-2.896756 -0.61057,-0.649639 z" />
      <path
         id="path1160"
         style="font-style:normal;font-variant:normal;font-weight:500;font-stretch:normal;font-size:9.87778px;font-family:'Fira Code';-inkscape-font-specification:'Fira Code Medium'"
         d="m 406.50137,33.712627 c -0.48316,0.38533 -0.7561,0.920495 -0.73978,1.639633 -0.92057,-1.23551 -1.04388,-2.348779 -0.29539,-2.945724 0.27326,-0.217932 0.60573,-0.353501 0.95941,-0.389358 l -0.11027,-0.845065 c -0.47315,0.04042 -0.94648,0.210588 -1.39003,0.564334 -1.35442,1.080186 -1.19583,2.936354 0.25705,4.758084 1.23179,1.54451 2.63971,2.229356 4.01393,1.133377 1.04155,-0.83067 1.18052,-2.224385 0.24878,-3.392668 -0.92858,-1.164323 -2.0962,-1.198519 -2.9437,-0.522613 z m 2.16195,3.238874 c -0.68909,0.549569 -1.40534,0.220181 -2.37031,-0.941033 -0.0489,-0.589445 0.12117,-1.139797 0.55284,-1.484067 0.50296,-0.401122 1.06223,-0.374172 1.73182,0.465408 0.59063,0.740573 0.69157,1.476451 0.0856,1.959692 z" />
      <path
         id="path1162"
         style="font-style:normal;font-variant:normal;font-weight:500;font-stretch:normal;font-size:9.87778px;font-family:'Fira Code';-inkscape-font-specification:'Fira Code Medium'"
         d="m 419.50385,29.563307 -2.97877,-5.321977 -0.87521,0.489865 -1.23093,2.198267 0.81278,0.456469 0.8811,-1.578702 2.40974,4.305321 -1.48962,0.833759 0.43543,0.777964 3.69091,-2.065844 -0.43544,-0.777963 z" />
      <path
         id="path1164"
         style="font-style:normal;font-variant:normal;font-weight:500;font-stretch:normal;font-size:9.87778px;font-family:'Fira Code';-inkscape-font-specification:'Fira Code Medium'"
         d="m 424.07095,28.39833 -0.10415,-6.874299 -0.33877,-0.741863 -3.95814,1.807443 0.37033,0.810981 2.91216,-1.329807 0.01,6.472006 z" />
      <path
         id="path1166"
         style="font-style:normal;font-variant:normal;font-weight:500;font-stretch:normal;font-size:9.87778px;font-family:'Fira Code';-inkscape-font-specification:'Fira Code Medium'"
         d="m 436.63611,22.823418 -1.59121,-5.887664 -0.96824,0.261677 -1.72978,1.831782 0.67694,0.64087 1.23945,-1.316214 1.28724,4.762944 -1.64796,0.44538 0.2326,0.860656 4.08322,-1.103538 -0.2326,-0.860655 z" />
      <path
         id="path1168"
         style="font-style:normal;font-variant:normal;font-weight:500;font-stretch:normal;font-size:9.87778px;font-family:'Fira Code';-inkscape-font-specification:'Fira Code Medium'"
         d="m 443.07992,16.953275 c -0.21709,-1.180738 -1.34335,-1.591714 -2.46928,-1.384695 -1.06117,0.19511 -2.03957,1.008505 -1.81423,2.234081 0.14107,0.767231 0.55954,1.138378 1.35247,1.389171 -0.74429,0.517979 -1.16206,1.187093 -1.01092,2.009126 0.19878,1.081097 1.20785,1.807192 2.75726,1.522313 1.54941,-0.28488 2.28312,-1.336561 2.08068,-2.437587 -0.15022,-0.817051 -0.7797,-1.355418 -1.76063,-1.592247 0.67534,-0.556807 0.98648,-1.077554 0.86465,-1.740162 z m -3.20149,0.655594 c -0.12183,-0.662609 0.20396,-1.103643 0.88152,-1.228221 0.68253,-0.125493 1.13536,0.208433 1.24895,0.826203 0.098,0.533076 -0.0934,0.892744 -0.59721,1.345911 -0.89417,-0.129169 -1.40869,-0.266339 -1.53326,-0.943893 z m 2.95751,2.891564 c 0.11725,0.637698 -0.22957,1.216509 -1.08149,1.373147 -0.84197,0.154806 -1.35286,-0.214799 -1.48202,-0.917263 -0.13648,-0.742321 0.20008,-1.236839 0.65563,-1.588421 1.09225,0.170006 1.7549,0.30054 1.90788,1.132537 z" />
      <path
         id="path1170"
         style="font-style:normal;font-variant:normal;font-weight:500;font-stretch:normal;font-size:9.87778px;font-family:'Fira Code';-inkscape-font-specification:'Fira Code Medium'"
         d="m 454.89283,20.45892 -0.11822,-6.09775 -1.00279,0.01944 -2.12185,1.358423 0.50162,0.785712 1.52127,-0.976926 0.0956,4.932897 -1.70676,0.03309 0.0173,0.891365 4.22892,-0.08199 -0.0173,-0.891365 z" />
      <path
         id="path1172"
         style="font-style:normal;font-variant:normal;font-weight:500;font-stretch:normal;font-size:9.87778px;font-family:'Fira Code';-inkscape-font-specification:'Fira Code Medium'"
         d="m 460.4078,14.380532 c -1.32975,-0.08122 -2.41968,0.73017 -2.51141,2.231833 -0.084,1.37526 0.71323,2.281627 1.85086,2.351115 0.65729,0.04015 1.1707,-0.222839 1.60742,-0.64276 -0.26498,1.43018 -1.2698,2.094524 -3.13038,2.478223 l 0.1971,0.844334 c 2.77168,-0.510745 4.03132,-1.524922 4.20026,-4.290611 0.10469,-1.71402 -0.62623,-2.875159 -2.21385,-2.972134 z m -0.32584,3.755874 c -0.67246,-0.04108 -1.093,-0.467686 -1.03277,-1.453626 0.0618,-1.011221 0.52242,-1.490581 1.30106,-1.443019 0.88481,0.05405 1.17455,0.71119 1.08448,2.268779 -0.40638,0.421774 -0.81682,0.660602 -1.35277,0.627866 z" />
      <path
         id="path1174"
         style="font-style:normal;font-variant:normal;font-weight:500;font-stretch:normal;font-size:9.87778px;font-family:'Fira Code';-inkscape-font-specification:'Fira Code Medium'"
         d="m 473.38474,16.200721 c -0.98774,-0.225279 -1.73514,-8.73e-4 -2.41789,0.555206 l 0.59602,0.712649 c 0.5138,-0.407572 0.9277,-0.536583 1.5401,-0.39691 0.69142,0.157694 1.00559,0.670975 0.84902,1.357455 -0.22753,0.997619 -1.02059,1.627258 -4.00141,3.420518 l -0.19149,0.83958 4.23741,0.966444 0.33116,-0.859681 -3.09657,-0.706247 c 2.62853,-1.478744 3.60986,-2.273266 3.88245,-3.468433 0.24442,-1.071699 -0.34103,-2.104065 -1.7288,-2.420581 z" />
      <path
         id="path1176"
         style="font-style:normal;font-variant:normal;font-weight:500;font-stretch:normal;font-size:9.87778px;font-family:'Fira Code';-inkscape-font-specification:'Fira Code Medium'"
         d="m 480.09137,18.011143 c -1.49715,-0.473749 -2.6672,0.537406 -3.36407,2.73966 -0.69993,2.211914 -0.32607,3.71693 1.17107,4.190679 1.49232,0.47222 2.66873,-0.542237 3.36866,-2.75415 0.69687,-2.202254 0.31666,-3.703969 -1.17566,-4.176189 z m -0.26133,0.825845 c 0.36222,0.114617 0.59269,0.309747 0.6924,0.649459 l -3.10327,3.241921 c 0.0417,-0.417169 0.16963,-0.955811 0.38511,-1.636771 0.59447,-1.878677 1.2627,-2.496068 2.02576,-2.254609 z m -1.67034,5.278648 c -0.32841,-0.103919 -0.55051,-0.275147 -0.6655,-0.566564 l 3.06054,-3.207625 c -0.0468,0.399625 -0.1706,0.891745 -0.36469,1.505092 -0.60212,1.902824 -1.25763,2.513613 -2.03035,2.269097 z" />
      <path
         id="path1178"
         style="font-style:normal;font-variant:normal;font-weight:500;font-stretch:normal;font-size:9.87778px;font-family:'Fira Code';-inkscape-font-specification:'Fira Code Medium'"
         d="m 492.15939,22.927753 c -0.90292,-0.459478 -1.68248,-0.42422 -2.48028,-0.05154 l 0.40412,0.836539 c 0.59772,-0.269885 1.03058,-0.294006 1.59039,-0.0091 0.63205,0.321635 0.81148,0.896059 0.49214,1.523588 -0.46407,0.911948 -1.38679,1.329051 -4.71507,2.340788 l -0.39056,0.767481 3.87352,1.971163 0.53091,-0.752895 -2.83065,-1.440465 c 2.9099,-0.792688 4.05543,-1.32375 4.6114,-2.416282 0.49854,-0.979667 0.18268,-2.123679 -1.08592,-2.769247 z" />
      <path
         id="path1180"
         style="font-style:normal;font-variant:normal;font-weight:500;font-stretch:normal;font-size:9.87778px;font-family:'Fira Code';-inkscape-font-specification:'Fira Code Medium'"
         d="m 495.73748,32.118547 3.20071,-5.191529 -0.85376,-0.526363 -2.51943,-0.0061 -0.003,0.932175 1.80794,0.0018 -2.58928,4.199791 -1.45312,-0.89588 -0.46787,0.758894 3.60043,2.219763 0.46788,-0.758894 z" />
      <path
         id="path1182"
         style="font-style:normal;font-variant:normal;font-weight:500;font-stretch:normal;font-size:9.87778px;font-family:'Fira Code';-inkscape-font-specification:'Fira Code Medium'"
         d="m 508.72358,34.010615 c -0.76485,-0.664362 -1.52976,-0.818839 -2.39405,-0.650346 l 0.18962,0.90948 c 0.64527,-0.117186 1.07111,-0.03582 1.54532,0.376088 0.5354,0.465054 0.57046,1.065828 0.10873,1.597404 -0.67101,0.772505 -1.66724,0.953867 -5.14145,1.12993 l -0.5647,0.650129 3.28123,2.850113 0.69736,-0.602004 -2.39783,-2.082775 c 3.01524,-0.0648 4.25525,-0.302797 5.05913,-1.228273 0.72083,-0.82987 0.69127,-2.016317 -0.38336,-2.949746 z" />
      <path
         id="path1184"
         style="font-style:normal;font-variant:normal;font-weight:500;font-stretch:normal;font-size:9.87778px;font-family:'Fira Code';-inkscape-font-specification:'Fira Code Medium'"
         d="m 513.58285,38.558561 c -0.7085,-0.724165 -1.45837,-0.940126 -2.33347,-0.842233 l 0.11529,0.921856 c 0.65264,-0.0645 1.07048,0.05111 1.50975,0.500091 0.49595,0.506916 0.48221,1.108555 -0.0211,1.600961 -0.7314,0.715583 -1.73906,0.815608 -5.21611,0.709525 l -0.61554,0.602223 3.03946,3.106666 0.74385,-0.543507 -2.22114,-2.270255 c 3.01057,0.179787 4.26579,0.04307 5.14203,-0.814216 0.78572,-0.76872 0.85241,-1.95366 -0.14303,-2.971111 z" />
      <path
         id="path1186"
         style="font-style:normal;font-variant:normal;font-weight:500;font-stretch:normal;font-size:9.87778px;font-family:'Fira Code';-inkscape-font-specification:'Fira Code Medium'"
         d="m 522.11869,48.759788 c -0.58205,-0.82922 -1.28712,-1.16362 -2.16653,-1.208551 l -0.0353,0.928366 c 0.65449,0.0419 1.04813,0.223572 1.409,0.737689 0.40743,0.580454 0.29656,1.171949 -0.27975,1.576471 -0.83751,0.587867 -1.84808,0.5236 -5.26219,-0.14345 l -0.70483,0.494739 2.49697,3.557354 0.82197,-0.416043 -1.82472,-2.599604 c 2.94185,0.664337 4.20266,0.732432 5.20602,0.02816 0.8997,-0.63152 1.15716,-1.790073 0.33939,-2.955127 z" />
      <path
         id="path1188"
         style="font-style:normal;font-variant:normal;font-weight:500;font-stretch:normal;font-size:9.87778px;font-family:'Fira Code';-inkscape-font-specification:'Fira Code Medium'"
         d="m 525.72809,54.330922 c -0.41006,-0.699099 -1.0143,-1.178592 -1.82688,-1.412558 l -0.24993,0.845437 c 0.57688,0.172544 0.97748,0.424999 1.27477,0.931846 0.34599,0.589864 0.28226,1.232123 -0.30323,1.575545 -0.64667,0.379302 -1.24213,0.06496 -1.57274,-0.498686 l -0.21528,-0.367027 -0.78758,0.309267 0.30498,0.519955 c 0.40493,0.69036 0.41082,1.321148 -0.3713,1.779898 -0.68599,0.402368 -1.37093,0.175753 -1.80918,-0.571409 -0.28448,-0.485 -0.37851,-1.075833 -0.17899,-1.656795 l -0.87543,-0.291061 c -0.28867,0.809431 -0.14364,1.687467 0.3023,2.447737 0.77654,1.323919 2.08539,1.71312 3.12093,1.105724 0.94815,-0.556138 1.03276,-1.463165 0.6706,-2.260827 0.55454,0.584989 1.37947,0.799965 2.12226,0.36428 0.83018,-0.486941 1.09692,-1.624119 0.3947,-2.821326 z" />
      <path
         id="path1190"
         style="font-style:normal;font-variant:normal;font-weight:500;font-stretch:normal;font-size:9.87778px;font-family:'Fira Code';-inkscape-font-specification:'Fira Code Medium'"
         d="m 531.55343,66.322779 c -0.36308,-0.94581 -0.96575,-1.441532 -1.80788,-1.698831 l -0.25988,0.891951 c 0.62468,0.199697 0.96237,0.471585 1.18748,1.057987 0.25416,0.662067 0.003,1.208887 -0.65447,1.461227 -0.95527,0.366711 -1.91993,0.05878 -5.06958,-1.417966 l -0.80393,0.308618 1.55761,4.057523 0.89843,-0.203817 -1.13826,-2.965113 c 2.69221,1.35935 3.89868,1.731806 5.04311,1.292479 1.0262,-0.393942 1.55749,-1.455196 1.04737,-2.784058 z" />
      <path
         id="path1192"
         style="font-style:normal;font-variant:normal;font-weight:500;font-stretch:normal;font-size:9.87778px;font-family:'Fira Code';-inkscape-font-specification:'Fira Code Medium'"
         d="m 530.0079,76.517035 -0.233,-0.797402 1.79415,-0.524255 -0.2671,-0.914095 -1.83251,0.392975 -0.48305,-1.65315 4.58922,0.51665 0.0961,-1.025513 -5.10534,-0.60332 -0.7585,0.221636 0.81409,2.786045 -1.54477,0.456659 0.30546,1.045374 1.54619,-0.451796 0.233,0.797402 z" />
      <path
         id="path1194"
         style="font-style:normal;font-variant:normal;font-weight:500;font-stretch:normal;font-size:9.87778px;font-family:'Fira Code';-inkscape-font-specification:'Fira Code Medium'"
         d="m 536.42424,85.660375 c -0.12159,-1.005784 -0.58524,-1.633458 -1.33925,-2.08827 l -0.46946,0.801699 c 0.55716,0.345945 0.81839,0.691945 0.89377,1.315531 0.0851,0.704049 -0.29189,1.173121 -0.99091,1.257619 -1.01584,0.122797 -1.87634,-0.410985 -4.57102,-2.610938 l -0.85492,0.103343 0.52158,4.314813 0.92101,0.02133 -0.38115,-3.153132 c 2.27965,1.974592 3.35894,2.629896 4.57594,2.482784 1.09127,-0.131915 1.86523,-1.031652 1.69441,-2.444779 z" />
      <path
         id="path1196"
         style="font-style:normal;font-variant:normal;font-weight:500;font-stretch:normal;font-size:9.87778px;font-family:'Fira Code';-inkscape-font-specification:'Fira Code Medium'"
         d="m 536.92462,94.581136 -0.15348,-3.912644 -3.5887,0.140777 0.0328,0.835169 c 0.17141,0.363345 0.25825,0.638756 0.27215,0.993071 0.0256,0.652951 -0.30964,1.152767 -1.33715,1.193074 -0.94652,0.03713 -1.50351,-0.463172 -1.53687,-1.313527 -0.0218,-0.556779 0.17735,-1.036049 0.59736,-1.442871 l -0.66437,-0.653241 c -0.54606,0.55371 -0.86791,1.265916 -0.83217,2.17701 0.0594,1.513429 1.07518,2.467188 2.47725,2.412188 1.40208,-0.055 2.19029,-0.897028 2.14641,-2.015649 -0.0149,-0.379623 -0.0952,-0.746541 -0.3182,-1.133208 l 1.94367,-0.07625 0.10523,2.682666 z" />
    </g>
  </g>
</svg>
