<?xml version="1.0" encoding="UTF-8" standalone="no"?>
<svg
   xmlns:dc="http://purl.org/dc/elements/1.1/"
   xmlns:cc="http://creativecommons.org/ns#"
   xmlns:rdf="http://www.w3.org/1999/02/22-rdf-syntax-ns#"
   xmlns:svg="http://www.w3.org/2000/svg"
   xmlns="http://www.w3.org/2000/svg"
   xmlns:sodipodi="http://sodipodi.sourceforge.net/DTD/sodipodi-0.dtd"
   xmlns:inkscape="http://www.inkscape.org/namespaces/inkscape"
   inkscape:version="1.0 (4035a4fb49, 2020-05-01)"
   sodipodi:docname="fingerprint.svg"
   version="1.1"
   width="512"
   viewBox="0 0 24 24"
   height="512"
   enable-background="new 0 0 24 24"
   id="bold">
  <metadata
     id="metadata27">
    <rdf:RDF>
      <cc:Work
         rdf:about="">
        <dc:format>image/svg+xml</dc:format>
        <dc:type
           rdf:resource="http://purl.org/dc/dcmitype/StillImage" />
      </cc:Work>
    </rdf:RDF>
  </metadata>
  <defs
     id="defs25" />
  <sodipodi:namedview
     inkscape:current-layer="bold"
     inkscape:window-maximized="1"
     inkscape:window-y="32"
     inkscape:window-x="0"
     inkscape:cy="343.39978"
     inkscape:cx="460.96651"
     inkscape:zoom="0.579358"
     showgrid="false"
     id="namedview23"
     inkscape:window-height="1140"
     inkscape:window-width="1920"
     inkscape:pageshadow="2"
     inkscape:pageopacity="0"
     guidetolerance="10"
     gridtolerance="10"
     objecttolerance="10"
     borderopacity="1"
     bordercolor="#666666"
     pagecolor="#ffffff" />
  <g
     style="fill:#7bab8b;fill-opacity:1"
     id="g4">
    <path
       style="fill:#7bab8b;fill-opacity:1"
       id="path2"
       d="m20.48 4.816c-.181 0-.361-.064-.505-.196-2.207-2.012-5.039-3.12-7.975-3.12s-5.768 1.108-7.975 3.121c-.307.279-.781.256-1.06-.049-.279-.306-.257-.781.049-1.06 2.485-2.265 5.676-3.512 8.986-3.512s6.501 1.247 8.986 3.512c.306.279.328.753.049 1.06-.148.162-.351.244-.555.244z" />
  </g>
  <g
     style="fill:#7bab8b;fill-opacity:1"
     id="g8">
    <path
       style="fill:#7bab8b;fill-opacity:1"
       id="path6"
       d="m21.75 9.717c-.241 0-.479-.116-.623-.332-2.082-3.1-5.494-4.951-9.127-4.951s-7.045 1.851-9.127 4.951c-.231.345-.698.437-1.041.205-.344-.231-.436-.697-.205-1.041 2.361-3.515 6.239-5.614 10.373-5.614s8.012 2.099 10.373 5.615c.231.344.14.81-.205 1.041-.128.085-.273.126-.418.126z" />
  </g>
  <g
     style="fill:#7bab8b;fill-opacity:1"
     id="g12">
    <path
       style="fill:#7bab8b;fill-opacity:1"
       id="path10"
       d="m9.631 24c-.193 0-.386-.074-.533-.222-.164-.165-4.007-4.088-4.007-7.865 0-3.92 3.099-7.109 6.909-7.109s6.909 3.189 6.909 7.109c0 .414-.336.75-.75.75s-.75-.336-.75-.75c0-3.093-2.426-5.609-5.409-5.609s-5.409 2.516-5.409 5.609c0 3.167 3.537 6.773 3.573 6.809.292.294.29.769-.005 1.061-.146.145-.337.217-.528.217z" />
  </g>
  <g
     style="fill:#7bab8b;fill-opacity:1"
     id="g16">
    <path
       style="fill:#7bab8b;fill-opacity:1"
       id="path14"
       d="m14.369 24c-1.804 0-5.986-3.432-6.391-7.254-.143-1.351.287-2.733 1.149-3.697.75-.838 1.763-1.303 2.852-1.309h.021c1.062 0 2.066.417 2.83 1.176.798.793 1.237 1.858 1.237 2.998v.489c0 1.205.938 2.185 2.092 2.185s2.093-.98 2.093-2.185v-.171c0-4.67-3.383-8.555-7.702-8.843-2.252-.153-4.412.625-6.079 2.183-1.73 1.618-2.722 3.93-2.722 6.342 0 1.984.672 3.917 1.892 5.443.258.324.206.795-.118 1.054-.323.259-.795.206-1.055-.118-1.431-1.791-2.22-4.057-2.22-6.38 0-2.826 1.166-5.537 3.197-7.437 1.973-1.846 4.531-2.764 7.203-2.585 5.104.341 9.103 4.883 9.103 10.34v.171c0 2.032-1.612 3.685-3.593 3.685s-3.592-1.653-3.592-3.685v-.489c0-.738-.282-1.424-.794-1.934-.48-.478-1.109-.74-1.772-.74-.005 0-.009 0-.014 0-.845.004-1.414.443-1.742.81-.585.653-.875 1.603-.776 2.539.331 3.118 3.914 5.913 4.9 5.913.414 0 .75.336.75.75s-.335.749-.749.749z" />
  </g>
  <g
     style="fill:#7bab8b;fill-opacity:1"
     id="g20">
    <path
       style="fill:#7bab8b;fill-opacity:1"
       id="path18"
       d="m17.152 22.533c-2.684 0-5.961-3.28-5.961-7.109 0-.414.336-.75.75-.75s.75.336.75.75c0 2.968 2.495 5.609 4.461 5.609.414 0 .75.336.75.75s-.336.75-.75.75z" />
  </g>
</svg>
