<?xml version="1.0" encoding="UTF-8" standalone="no"?>
<svg
   xmlns:dc="http://purl.org/dc/elements/1.1/"
   xmlns:cc="http://creativecommons.org/ns#"
   xmlns:rdf="http://www.w3.org/1999/02/22-rdf-syntax-ns#"
   xmlns:svg="http://www.w3.org/2000/svg"
   xmlns="http://www.w3.org/2000/svg"
   xmlns:sodipodi="http://sodipodi.sourceforge.net/DTD/sodipodi-0.dtd"
   xmlns:inkscape="http://www.inkscape.org/namespaces/inkscape"
   inkscape:version="1.0 (4035a4fb49, 2020-05-01)"
   sodipodi:docname="caesar.svg"
   id="svg321"
   version="1.1"
   width="53.511127"
   height="46.385258"
   xml:space="preserve"><sodipodi:namedview
     inkscape:current-layer="svg321"
     inkscape:window-maximized="1"
     inkscape:window-y="32"
     inkscape:window-x="0"
     inkscape:cy="24.8297"
     inkscape:cx="50.760415"
     inkscape:zoom="7.4250636"
     showgrid="false"
     id="namedview323"
     inkscape:window-height="1140"
     inkscape:window-width="1920"
     inkscape:pageshadow="2"
     inkscape:pageopacity="0"
     guidetolerance="10"
     gridtolerance="10"
     objecttolerance="10"
     borderopacity="1"
     bordercolor="#666666"
     pagecolor="#ffffff" /><metadata
     id="metadata2"><rdf:RDF><cc:Work
         rdf:about=""><dc:format>image/svg+xml</dc:format><dc:type
           rdf:resource="http://purl.org/dc/dcmitype/StillImage" /><dc:title /></cc:Work></rdf:RDF></metadata><defs
     id="defs7"><clipPath
       clipPathUnits="userSpaceOnUse"
       id="clipPath1154"><path
         id="path4"
         d="M 298.68,12.605 H 486.79 V 62.1 H 298.68 Z" /></clipPath></defs><path
     style="stroke-width:1.25;fill:#7bab8b;fill-opacity:1"
     id="path79"
     d="m 26.373634,40.841 c -5.885,-0.0225 -9.32875,-1.04125 -9.22,-8.36 5.1725,1.67375 4.21625,6.8725 9.22,8.36"
     fill="#000000"
     fill-rule="nonzero" /><path
     style="stroke-width:1.25;fill:#7bab8b;fill-opacity:1"
     id="path83"
     d="m 21.257496,12.161988 c -4.03,3.64375 -8.0575,0.215 -11.84625,3.805 2.96,-5.08375 5.565,-7.55625 11.84625,-3.805"
     fill="#000000"
     fill-rule="nonzero" /><path
     style="stroke-width:1.25;fill:#7bab8b;fill-opacity:1"
     id="path87"
     d="m 9.565124,14.30875 c 0.77625,-5.5725 -2.715,-8.6275 5.7475,-14.3075 3.84625,7.16875 -2.60375,8.3625 -5.7475,14.3075"
     fill="#000000"
     fill-rule="nonzero" /><path
     style="stroke-width:1.25;fill:#7bab8b;fill-opacity:1"
     id="path91"
     d="m 16.097126,15.586113 c -1.67,5.17625 -6.87125,4.21625 -8.3575,9.22125 0.02125,-5.8825 1.03875,-9.3275 8.3575,-9.22125"
     fill="#000000"
     fill-rule="nonzero" /><path
     style="stroke-width:1.25;fill:#7bab8b;fill-opacity:1"
     id="path95"
     d="m 7.044754,23.617738 c -2.11375,-5.21375 -6.6625,-6.11375 -2.1775,-15.265 6.9175,4.2875 1.93,8.54625 2.1775,15.265"
     fill="#000000"
     fill-rule="nonzero" /><path
     style="stroke-width:1.25;fill:#7bab8b;fill-opacity:1"
     id="path99"
     d="m 0,20.809863 c 8.13125,0.2525 5.93875,6.43625 9.51375,12.12875 C 5.0775,29.483613 0.69,30.978613 0,20.809863"
     fill="#000000"
     fill-rule="nonzero" /><path
     style="stroke-width:1.25;fill:#7bab8b;fill-opacity:1"
     id="path103"
     d="m 2.007122,34.033225 c 7.17125,-3.84875 8.365,2.60375 14.31,5.745 -5.575,-0.7725 -8.62625,2.7125 -14.31,-5.745"
     fill="#000000"
     fill-rule="nonzero" /><path
     style="stroke-width:1.25;fill:#7bab8b;fill-opacity:1"
     id="path107"
     d="m 10.712261,33.303613 c -2.925,-5.11 -3.76125,-8.60375 2.6275,-12.16875 1.1425,5.31625 -3.8425,7.09125 -2.6275,12.16875"
     fill="#000000"
     fill-rule="nonzero" /><path
     style="stroke-width:1.25;fill:#7bab8b;fill-opacity:1"
     id="path111"
     d="m 13.726254,27.321751 c 3.645,4.02875 0.21375,8.05875 3.8075,11.8475 -5.08625,-2.9625 -7.56,-5.56625 -3.8075,-11.8475"
     fill="#000000"
     fill-rule="nonzero" /><path
     style="stroke-width:1.25;fill:#7bab8b;fill-opacity:1"
     id="path115"
     d="m 10.36251,44.475613 c 4.285,-6.91625 8.54625,-1.92625 15.2625,-2.17625 -5.21375,2.11625 -6.11375,6.6625 -15.2625,2.17625"
     fill="#000000"
     fill-rule="nonzero" /><path
     style="stroke-width:1.25;fill:#7bab8b;fill-opacity:1"
     id="path119"
     d="m 27.137509,40.841 c 5.885,-0.0225 9.3275,-1.04125 9.2175,-8.36125 -5.17125,1.6725 -4.21375,6.87125 -9.2175,8.36125"
     fill="#000000"
     fill-rule="nonzero" /><path
     style="stroke-width:1.25;fill:#7bab8b;fill-opacity:1"
     id="path123"
     d="m 32.251878,12.161988 c 4.03,3.6425 8.05625,0.215 11.845,3.805 -2.96,-5.08625 -5.56375,-7.5575 -11.845,-3.805"
     fill="#000000"
     fill-rule="nonzero" /><path
     style="stroke-width:1.25;fill:#7bab8b;fill-opacity:1"
     id="path127"
     d="M 43.942628,14.30875 C 43.167628,8.73625 46.658878,5.68 38.197628,0 c -3.84625,7.16875 2.6025,8.36375 5.745,14.30875"
     fill="#000000"
     fill-rule="nonzero" /><path
     style="stroke-width:1.25;fill:#7bab8b;fill-opacity:1"
     id="path131"
     d="m 37.41139,15.585375 c 1.67125,5.175 6.87375,4.2175 8.3575,9.2225 -0.02125,-5.8825 -1.03875,-9.3275 -8.3575,-9.2225"
     fill="#000000"
     fill-rule="nonzero" /><path
     style="stroke-width:1.25;fill:#7bab8b;fill-opacity:1"
     id="path135"
     d="m 46.463128,23.617738 c 2.115,-5.215 6.66375,-6.115 2.17875,-15.26625 -6.91625,4.2875 -1.92875,8.54625 -2.17875,15.26625"
     fill="#000000"
     fill-rule="nonzero" /><path
     style="stroke-width:1.25;fill:#7bab8b;fill-opacity:1"
     id="path139"
     d="m 53.511128,20.809863 c -8.1325,0.2525 -5.94125,6.43625 -9.51625,12.12875 4.4375,-3.45625 8.825,-1.96125 9.51625,-12.12875"
     fill="#000000"
     fill-rule="nonzero" /><path
     style="stroke-width:1.25;fill:#7bab8b;fill-opacity:1"
     id="path143"
     d="m 51.500765,34.032488 c -7.16875,-3.84875 -8.365,2.60375 -14.3075,5.745 5.575,-0.7725 8.62625,2.7125 14.3075,-5.745"
     fill="#000000"
     fill-rule="nonzero" /><path
     style="stroke-width:1.25;fill:#7bab8b;fill-opacity:1"
     id="path147"
     d="m 42.798003,33.303613 c 2.92375,-5.11 3.7625,-8.605 -2.6275,-12.16875 -1.14375,5.315 3.8425,7.09 2.6275,12.16875"
     fill="#000000"
     fill-rule="nonzero" /><path
     style="stroke-width:1.25;fill:#7bab8b;fill-opacity:1"
     id="path151"
     d="m 39.784127,27.319988 c -3.64375,4.02875 -0.215,8.05875 -3.80625,11.8475 5.085,-2.9625 7.55625,-5.565 3.80625,-11.8475"
     fill="#000000"
     fill-rule="nonzero" /><path
     style="stroke-width:1.25;fill:#7bab8b;fill-opacity:1"
     id="path155"
     d="m 43.147015,44.473975 c -4.285,-6.915 -8.54625,-1.92375 -15.26375,-2.1775 5.215,2.12 6.11625,6.66375 15.26375,2.1775"
     fill="#000000"
     fill-rule="nonzero" /></svg>
