<?xml version="1.0" encoding="UTF-8" standalone="no"?>
<svg
   xmlns:dc="http://purl.org/dc/elements/1.1/"
   xmlns:cc="http://creativecommons.org/ns#"
   xmlns:rdf="http://www.w3.org/1999/02/22-rdf-syntax-ns#"
   xmlns:svg="http://www.w3.org/2000/svg"
   xmlns="http://www.w3.org/2000/svg"
   xmlns:sodipodi="http://sodipodi.sourceforge.net/DTD/sodipodi-0.dtd"
   xmlns:inkscape="http://www.inkscape.org/namespaces/inkscape"
   inkscape:version="1.0 (4035a4fb49, 2020-05-01)"
   sodipodi:docname="public-private-key.svg"
   version="1.1"
   width="1688.0409"
   viewBox="0 0 1529.7871 467.87125"
   height="516.27173"
   enable-background="new 0 0 464 464"
   id="Layer_1">
  <metadata
     id="metadata35">
    <rdf:RDF>
      <cc:Work
         rdf:about="">
        <dc:format>image/svg+xml</dc:format>
        <dc:type
           rdf:resource="http://purl.org/dc/dcmitype/StillImage" />
        <dc:title></dc:title>
      </cc:Work>
    </rdf:RDF>
  </metadata>
  <defs
     id="defs33" />
  <sodipodi:namedview
     inkscape:current-layer="Layer_1"
     inkscape:window-maximized="1"
     inkscape:window-y="32"
     inkscape:window-x="0"
     inkscape:cy="319.15678"
     inkscape:cx="571.11142"
     inkscape:zoom="0.40966797"
     showgrid="false"
     id="namedview31"
     inkscape:window-height="1140"
     inkscape:window-width="1920"
     inkscape:pageshadow="2"
     inkscape:pageopacity="0"
     guidetolerance="10"
     gridtolerance="10"
     objecttolerance="10"
     borderopacity="1"
     bordercolor="#666666"
     pagecolor="#ffffff" />
  <g
     transform="translate(1118.087)"
     id="g983">
    <path
       d="m 399.52,355.48 c -0.232,0.232 -23.421,23.459 -23.7,23.63 6.47,11.05 10.18,23.91 10.18,37.63 V 456 c 0,4.42 -3.58,8 -8,8 H 86 c -4.42,0 -8,-3.58 -8,-8 v -39.26 c 0,-13.72 3.71,-26.58 10.18,-37.63 -0.269,-0.164 1.628,1.698 -23.7,-23.63 -9.4,-9.4 -10.27,-24.34 -2.04,-34.77 10.038,-12.843 7.122,-27.663 -1.91,-36.18 C 50.62,275.18 49.52,259.8 58,249.14 l 11.52,-14.48 c 5.31,-6.68 7.04,-15.54 4.62,-23.73 L 66.7,185.7 c -3.81,-12.89 2.76,-26.58 15.2,-31.67 L 91.73,150 C 101.57,145.97 108,136.39 108,125.75 V 100 C 108,44.77 152.77,0 208,0 h 48 c 55.227,0 100,44.758 100,100 v 25.75 c 0,10.64 6.43,20.22 16.27,24.25 l 9.83,4.03 c 12.44,5.09 19.01,18.78 15.2,31.67 l -7.44,25.23 c -2.42,8.19 -0.69,17.05 4.62,23.73 L 406,249.14 c 8.487,10.686 7.376,26.03 -2.53,35.39 -9.89,9.32 -11.01,24.65 -2.59,35.31 9.566,12.239 7.533,26.747 -1.36,35.64 z"
       fill="#ffdfba"
       id="path2" />
    <path
       d="m 64.48,355.48 c 0.232,0.232 23.421,23.459 23.7,23.63 C 81.71,390.16 78,403.02 78,416.74 V 456 c 0,4.42 3.58,8 8,8 h 292 c 4.42,0 8,-3.58 8,-8 v -39.26 c 0,-13.72 -3.71,-26.58 -10.18,-37.63 0.269,-0.164 -1.628,1.698 23.7,-23.63 9.4,-9.4 10.27,-24.34 2.04,-34.77 -10.038,-12.843 -7.122,-27.663 1.91,-36.18 9.91,-9.35 11.01,-24.73 2.53,-35.39 l -11.52,-14.48 c -5.31,-6.68 -7.04,-15.54 -4.62,-23.73 l 7.44,-25.23 c 3.81,-12.89 -2.76,-26.58 -15.2,-31.67 L 372.27,150 C 362.43,145.97 356,136.39 356,125.75 V 100 C 356,44.77 311.23,0 256,0 H 208 C 152.773,0 108,44.758 108,100 v 25.75 c 0,10.64 -6.43,20.22 -16.27,24.25 l -9.83,4.03 c -12.44,5.09 -19.01,18.78 -15.2,31.67 l 7.44,25.23 c 2.42,8.19 0.69,17.05 -4.62,23.73 L 58,249.14 c -8.487,10.686 -7.376,26.03 2.53,35.39 9.89,9.32 11.01,24.65 2.59,35.31 -9.566,12.239 -7.533,26.747 1.36,35.64 z"
       fill="#ffdfba"
       id="path4" />
    <path
       d="m 140.093,178.836 c -4.044,0.462 -7.093,3.876 -7.093,7.946 v 15.349 c 0,41.26 25.25,76.64 61.15,91.5 L 194,294 v 6.83 c 0,22.742 -18.332,41.074 -40.95,41.34 -28.072,0 -51.915,14.815 -64.87,36.94 -0.279,-0.171 -23.468,-23.398 -23.7,-23.63 -9.4,-9.4 -10.27,-24.34 -2.04,-34.77 10.038,-12.843 7.122,-27.663 -1.91,-36.18 C 50.62,275.18 49.52,259.8 58,249.14 l 11.52,-14.48 c 5.31,-6.68 7.04,-15.54 4.62,-23.73 L 66.7,185.7 c -3.81,-12.89 2.76,-26.58 15.2,-31.67 L 91.73,150 C 101.57,145.97 108,136.39 108,125.75 V 100 C 108,44.772 152.772,0 208,0 h 48 c 55.227,0 100,44.759 100,100 v 25.75 c 0,10.64 6.43,20.22 16.27,24.25 l 9.83,4.03 c 12.44,5.09 19.01,18.78 15.2,31.67 l -7.44,25.23 c -2.42,8.19 -0.69,17.05 4.62,23.73 L 406,249.14 c 8.486,10.685 7.378,26.029 -2.53,35.39 -9.236,8.703 -11.782,23.55 -1.91,36.18 8.23,10.43 7.36,25.37 -2.04,34.77 -0.232,0.232 -23.421,23.459 -23.7,23.63 C 362.972,357.168 339.227,342.17 310.95,342.17 288.341,341.904 270,323.583 270,300.83 V 294 l -0.15,-0.38 C 305.75,278.76 331,243.4 331,202.13 v -49.313 c 0,-3.362 -2.094,-6.369 -5.256,-7.513 -17.4,-6.292 -32.091,-18.416 -41.536,-34.614 -2.759,-4.731 -9.384,-5.284 -12.962,-1.137 -33.479,38.805 -79.948,63.436 -131.153,69.283 z"
       fill="#fe4f60"
       id="path6"
       style="fill:#8b7bab;fill-opacity:1" />
    <path
       id="path10"
       style="stroke-width:1.10345"
       d="m 187.31055,373.47266 c -0.738,0.33566 -1.48001,0.64841 -2.22657,0.9414 -0.27421,0.1076 -0.55527,0.20029 -0.83203,0.30274 -0.47745,0.17673 -0.95527,0.35592 -1.43554,0.51562 -0.33144,0.1102 -0.66917,0.2058 -1.00391,0.3086 -0.43132,0.13241 -0.86181,0.26967 -1.29492,0.38867 -0.36028,0.099 -0.72609,0.18304 -1.08985,0.27343 -0.41317,0.10259 -0.82585,0.20819 -1.24023,0.29883 -0.37168,0.0814 -0.74807,0.15036 -1.12305,0.22266 -0.42166,0.0812 -0.84314,0.16338 -1.26562,0.23242 -0.36419,0.0596 -0.73259,0.1072 -1.09961,0.1582 -0.42037,0.0582 -0.84097,0.11956 -1.26172,0.16602 -0.3735,0.0414 -0.75081,0.0712 -1.12695,0.10352 -0.4427,0.0379 -0.88548,0.0784 -1.32813,0.10351 -0.33311,0.019 -0.66893,0.0253 -1.0039,0.0371 -0.54219,0.0189 -1.08363,0.041 -1.625,0.041 -45.47531,0 -82.285161,36.87715 -82.285161,82.28515 v 43.32032 c 0,4.87724 3.950884,8.82812 8.828125,8.82812 h 112.552736 97.10156 112.55274 c 4.87724,0 8.82812,-3.95088 8.82812,-8.82812 v -43.32032 c 0,-44.3862 -35.567,-82.28515 -82.81445,-82.28515 -6.56552,-0.0772 -12.80015,-1.53375 -18.42774,-4.09375 l -0.27539,0.5957 -63.00976,48.78125 c -0.59669,0.46179 -1.23745,0.83833 -1.90625,1.12695 -0.44587,0.19242 -0.90356,0.34549 -1.36914,0.46094 -0.25782,0.0639 -0.51978,0.114 -0.78125,0.1543 -0.44631,0.0687 -0.89721,0.10547 -1.34766,0.10547 -0.45045,0 -0.90138,-0.0367 -1.34766,-0.10547 -0.0253,-0.004 -0.0509,-0.006 -0.0762,-0.01 -6.3e-4,-1e-4 -0.001,10e-5 -0.002,0 -0.70756,-0.11545 -1.4036,-0.31685 -2.07227,-0.60547 -0.66867,-0.28862 -1.30976,-0.66516 -1.90625,-1.12695 L 187.58586,374.0681 Z"
       transform="scale(0.90625)" />
  </g>
  <g
     transform="matrix(0.80714771,0,0,0.80714771,1080.0984,-178.89634)"
     id="g972">
    <rect
       ry="0"
       rx="0"
       y="748.3382"
       x="-385.38364"
       height="52.961945"
       width="90.789284"
       id="rect898"
       style="opacity:1;fill:#42434d;fill-opacity:1;stroke-width:1.20644;stroke-linecap:round" />
    <rect
       style="opacity:1;fill:#42434d;fill-opacity:1;stroke-width:1.20644;stroke-linecap:round"
       id="rect896"
       width="90.789284"
       height="52.961945"
       x="-530.85846"
       y="748.3382"
       rx="0"
       ry="0" />
    <rect
       style="opacity:1;fill:#000000;fill-opacity:1;stroke-width:1.43822;stroke-linecap:round"
       id="rect892"
       width="348.90942"
       height="348.90942"
       x="-587.18115"
       y="418.78497"
       ry="25.66293" />
    <g
       id="g911"
       transform="translate(0,2.0862122)"
       style="fill:#42434d;fill-opacity:1">
      <rect
         style="opacity:1;fill:#42434d;fill-opacity:1;stroke-width:0.988202;stroke-linecap:round"
         id="rect902"
         width="239.73602"
         height="239.73602"
         x="-532.59442"
         y="471.28546"
         ry="17.633024" />
      <rect
         ry="3.6485457"
         y="511.6893"
         x="-307.34683"
         height="49.605095"
         width="26.614405"
         id="rect904"
         style="opacity:1;fill:#42434d;fill-opacity:1;stroke-width:0.149773;stroke-linecap:round" />
      <rect
         style="opacity:1;fill:#42434d;fill-opacity:1;stroke-width:0.149773;stroke-linecap:round"
         id="rect906"
         width="26.614405"
         height="49.605095"
         x="-307.34683"
         y="621.01257"
         ry="3.6485457" />
    </g>
    <path
       style="fill:#000000;fill-rule:nonzero;stroke-width:4.84295"
       d="m -460.33773,615.47851 c 10.60965,25.61526 37.83638,40.16873 65.02924,34.75999 27.19286,-5.40873 46.77815,-29.27326 46.77815,-56.99881 0,-27.72555 -19.58529,-51.59007 -46.77815,-56.99881 -27.19286,-5.40874 -54.41959,9.14473 -65.02924,34.75999 -5.94503,14.22991 -5.94503,30.24773 0,44.47764 z m 30.77209,-64.89551 1.76284,4.25211 c 0.63742,1.6351 2.10953,2.79741 3.8479,3.03814 1.73836,0.24074 3.47093,-0.47781 4.52869,-1.87817 1.05777,-1.40035 1.2752,-3.26337 0.56833,-4.86967 l -1.75799,-4.25211 c 9.10536,-2.77002 18.82877,-2.77002 27.93412,0 l -1.75799,4.25211 c -0.70686,1.6063 -0.48943,3.46932 0.56833,4.86967 1.05777,1.40035 2.79034,2.11889 4.5287,1.87817 1.73836,-0.24073 3.21048,-1.40304 3.8479,-3.03814 l 1.76283,-4.25695 c 8.39569,4.48169 15.26991,11.3576 19.74955,19.75438 l -4.25211,1.76284 c -1.6351,0.63742 -2.79742,2.10954 -3.03814,3.8479 -0.24074,1.73836 0.47781,3.47093 1.87817,4.5287 1.40035,1.05776 3.26337,1.27519 4.86967,0.56832 l 4.25211,-1.75799 c 2.77002,9.10537 2.77002,18.82877 0,27.93413 l -4.25211,-1.75799 c -1.6063,-0.70687 -3.46932,-0.48944 -4.86967,0.56832 -1.40034,1.05777 -2.11889,2.79034 -1.87817,4.5287 0.24075,1.73836 1.40304,3.21048 3.03814,3.8479 l 4.25695,1.76284 c -4.48169,8.39568 -11.3576,15.26991 -19.75439,19.74954 l -1.76283,-4.25211 c -0.63742,-1.63509 -2.10954,-2.79741 -3.8479,-3.03813 -1.73836,-0.24075 -3.47093,0.4778 -4.5287,1.87816 -1.05776,1.40036 -1.27519,3.26338 -0.56833,4.86967 l 1.75799,4.25211 c -9.10535,2.77002 -18.82876,2.77002 -27.93412,0 l 1.75799,-4.25211 c 0.70687,-1.60629 0.48944,-3.46931 -0.56833,-4.86967 -1.05776,-1.40034 -2.79033,-2.11889 -4.52869,-1.87816 -1.73837,0.24072 -3.21048,1.40304 -3.8479,3.03813 l -1.76284,4.25696 c -8.39568,-4.4817 -15.26991,-11.35761 -19.74954,-19.75439 l 4.25211,-1.76284 c 1.63509,-0.63742 2.79741,-2.10954 3.03814,-3.8479 0.24074,-1.73836 -0.47781,-3.47093 -1.87818,-4.5287 -1.40035,-1.05776 -3.26337,-1.27519 -4.86966,-0.56832 l -4.25211,1.75799 c -2.77002,-9.10536 -2.77002,-18.82876 0,-27.93413 l 4.25211,1.75799 c 1.60629,0.70687 3.46931,0.48944 4.86966,-0.56832 1.40035,-1.05777 2.1189,-2.79034 1.87818,-4.5287 -0.24073,-1.73836 -1.40305,-3.21048 -3.03814,-3.8479 l -4.25695,-1.76284 c 4.48015,-8.39927 11.35621,-15.27701 19.75438,-19.75922 z"
       id="path864" />
    <path
       style="fill:#000000;fill-rule:nonzero;stroke-width:4.84295"
       d="m -406.6185,622.2974 c 12.79684,-0.0199 24.07427,-8.40919 27.77256,-20.65999 3.69828,-12.25081 -1.05326,-25.47893 -11.70148,-32.57646 -10.64823,-7.09754 -24.6862,-6.39351 -34.57087,1.73379 -9.88466,8.12729 -13.28887,21.76444 -8.38342,33.58375 4.51817,10.85548 15.12501,17.92543 26.88321,17.91891 z m -7.4533,-46.9766 c 9.88524,-4.07807 21.20517,0.62506 25.29024,10.50741 4.08506,9.88235 -0.61005,21.20561 -10.48952,25.29767 -9.87946,4.09205 -21.20603,-0.59505 -25.30507,-10.47162 -1.98563,-4.75054 -1.99323,-10.09709 -0.0211,-14.85326 1.97212,-4.75617 5.76084,-8.5286 10.52547,-10.4802 z"
       id="path866" />
  </g>
  <g
     transform="translate(1085.3204,111.24316)"
     id="g977">
    <path
       d="m -775.52505,305.22136 v 39.48885 c 0,4.44576 -3.60086,8.04663 -8.04663,8.04663 h -293.70202 c -4.4458,0 -8.0467,-3.60087 -8.0467,-8.04663 v -39.48885 c 0,-41.24904 33.303,-75.44723 74.542,-75.00467 23.34228,0.23235 42.13419,-18.53742 42.13419,-41.58097 v -6.86981 l 0.15087,-0.37215 c -36.10926,-14.94662 -61.50646,-50.5228 -61.50646,-92.033358 v -3.148245 c -14.3351,0 -25.1457,-11.327646 -25.1457,-24.683044 v -88.663826 c 0,-29.128808 14.4437,-56.366657 38.5534,-72.721437 l 11.8286,-8.01646 c 4.4658,-3.02754 10.58129,-0.88513 12.19061,4.26472 l 4.17419,13.357407 c 1.41822,4.546347 6.45743,6.869812 10.84284,4.99897 l 59.38415,-25.346887 c 4.26471,-1.8105 9.18321,0.33192 10.74225,4.69722 l 4.6771,13.095891 c 1.40816,3.962967 5.63265,6.165732 9.6962,5.05932 l 49.03416,-13.367471 c 5.10961,-1.3981 10.15887,2.454227 10.15887,7.754945 v 11.174761 c 0,3.28906 2.0016,6.256256 5.05932,7.473309 l 36.52165,14.614695 c 4.50612,1.800434 6.35684,7.131328 4.03338,11.396043 -10.43045,19.100693 -16.44531,41.168581 -16.44531,64.413289 v 44.347001 c 0,14.443704 -11.70785,26.151554 -26.15155,26.151554 v 3.148245 c 0,41.510558 -25.39718,77.086738 -61.50644,92.033358 l 0.15087,0.37215 v 6.86981 c 0,23.07674 18.8261,41.81232 42.13418,41.58097 41.23899,-0.44256 74.54198,33.75563 74.54198,75.00467 z"
       fill="#ffdfba"
       id="path918"
       style="stroke-width:1.00583" />
    <path
       d="m -775.52505,305.22136 v 39.48885 c 0,4.44375 -3.60288,8.04663 -8.04663,8.04663 h -293.70202 c -4.4438,0 -8.0467,-3.60288 -8.0467,-8.04663 v -39.48885 c 0,-41.24502 33.302,-75.45226 74.545,-75.00668 6.0712,0.0654 11.86479,-1.16676 17.08604,-3.43792 v 0.0101 c 11.01383,25.0552 35.9081,41.29934 63.26665,41.29934 27.35855,0 52.25281,-16.24414 63.26664,-41.29934 v -0.0101 c 5.22126,2.27016 11.01484,3.5033 17.08602,3.43792 41.24301,-0.44558 74.545,33.76065 74.545,75.00668 z"
       fill="#ffaa64"
       id="path920"
       style="fill:#000000;stroke-width:1.00583" />
    <path
       d="m -833.86313,-82.180717 c 0,3.290067 2.00361,6.249216 5.05832,7.471298 l 36.52064,14.60866 c 4.51114,1.804458 6.35885,7.138369 4.03136,11.403084 -10.4224,19.095663 -16.44128,41.1695865 -16.44128,64.411277 v 44.347001 c 0,14.443704 -11.70785,26.151554 -26.15155,26.151554 V 24.082099 c 0,-26.6645263 -21.61527,-48.279792 -48.27979,-48.279792 h -102.59456 c -26.66451,0 -48.27981,21.6152657 -48.27981,48.279792 v 62.130058 c -14.3381,0 -25.1457,-11.330664 -25.1457,-24.683044 v -88.663826 c 0,-29.128808 14.4437,-56.366657 38.5534,-72.721437 l 11.8255,-8.01545 c 4.4659,-3.02654 10.5864,-0.88815 12.19472,4.26069 l 4.17419,13.356404 c 1.42023,4.546347 6.45742,6.869812 10.83781,5.000982 l 59.39319,-25.340856 c 4.26271,-1.81854 9.17719,0.32991 10.73522,4.69521 l 4.6771,13.096899 c 1.4142,3.959949 5.63868,6.162714 9.69519,5.056302 l 49.03215,-13.372501 c 5.11866,-1.39609 10.1639,2.457245 10.1639,7.762993 z"
       fill="#ffe773"
       id="path922"
       style="fill:#7bab8b;fill-opacity:1;stroke-width:1.00583" />
  </g>
</svg>
